<svg width="16" height="16" viewBox="0 0 16 16" fill="none" xmlns="http://www.w3.org/2000/svg">
<path d="M12.0004 4H5.52539C5.39278 4 5.26561 3.94732 5.17184 3.85355C5.07807 3.75979 5.02539 3.63261 5.02539 3.5C5.02539 3.36739 5.07807 3.24021 5.17184 3.14645C5.26561 3.05268 5.39278 3 5.52539 3H12.5004C12.633 3 12.7602 3.05268 12.8539 3.14645C12.9477 3.24021 13.0004 3.36739 13.0004 3.5V10.5C13.0004 10.6326 12.9477 10.7598 12.8539 10.8536C12.7602 10.9473 12.633 11 12.5004 11C12.3678 11 12.2406 10.9473 12.1468 10.8536C12.0531 10.7598 12.0004 10.6326 12.0004 10.5V4Z" fill="#9C0202"/>
<path d="M12.145 3.14521C12.239 3.05114 12.3666 2.99829 12.4997 2.99829C12.6327 2.99829 12.7603 3.05114 12.8543 3.14521C12.9484 3.23928 13.0013 3.36686 13.0013 3.49989C13.0013 3.63293 12.9484 3.76051 12.8543 3.85458L4.35434 12.3546C4.26027 12.4487 4.13268 12.5015 3.99965 12.5015C3.86662 12.5015 3.73903 12.4487 3.64496 12.3546C3.55089 12.2605 3.49805 12.1329 3.49805 11.9999C3.49805 11.8669 3.55089 11.7393 3.64496 11.6452L12.145 3.14521Z" fill="#9C0202"/>
</svg>
